<svg id="Capa_1" enable-background="new 0 0 512 512" height="512" viewBox="0 0 512 512" width="512" xmlns="http://www.w3.org/2000/svg" xmlns:xlink="http://www.w3.org/1999/xlink"><linearGradient id="SVGID_1_" gradientUnits="userSpaceOnUse" x1="256" x2="256" y1="512" y2="0"><stop offset="0" stop-color="#fd3a84"/><stop offset="1" stop-color="#ffa68d"/></linearGradient><g><g><g><path d="m321.633 211.454c-6.094-1.538-12.598.967-16.143 6.255-3.486 5.288-3.311 12.217.498 17.285l88.998 120c5.684 7.559 18.34 7.559 24.023 0l90-120c3.809-5.068 3.984-11.997.498-17.285-3.545-5.288-9.961-7.793-16.143-6.255l-41.367 10.327v-206.781c0-8.291-6.709-15-13.998-15h-421.997c-9.293 0-16.002 6.709-16.002 15v482c0 8.291 6.709 15 15 15h420.998c8.291 0 15-6.709 15-15v-60c0-8.291-6.709-15-15-15h-345.998v-332h273v131.781z" fill="url(#SVGID_1_)"/></g></g></g></svg>